<svg width="166" height="52" viewBox="0 0 166 52" fill="none" xmlns="http://www.w3.org/2000/svg">
<path d="M33.3302 24.4912C33.3302 24.4912 28.4203 24.1652 28.5281 18.5103C29.6452 18.546 33.4142 19.1816 33.3302 24.4912Z" fill="white"/>
<path d="M20.5052 24.7228C21.0417 24.1948 21.5651 23.6575 22.0828 23.1184C22.6977 22.4767 23.3059 21.8381 23.9218 21.211C24.462 20.6591 25.0078 20.119 25.57 19.5981C25.7195 19.4583 25.8726 19.3236 26.0236 19.1852C26.1746 19.0469 26.3309 18.9168 26.4865 18.7827C26.6421 18.6486 26.7991 18.5217 26.9554 18.3905C27.1117 18.2593 27.2758 18.1338 27.4357 18.0048C28.0791 17.4956 28.7367 17.0065 29.4132 16.5562C30.0862 16.1032 30.7863 15.6921 31.5096 15.3251C32.2315 14.9631 32.9792 14.6554 33.7467 14.4045C33.9372 14.3386 34.1319 14.2855 34.3256 14.2281L34.4713 14.186L34.6137 14.1503C34.7087 14.125 34.8063 14.104 34.9031 14.0822C35.292 13.996 35.6914 13.9293 36.0945 13.874L35.9745 12.9888C35.5547 13.0419 35.1335 13.1061 34.7105 13.1941C34.6037 13.2169 34.4969 13.2387 34.3929 13.2654L34.2334 13.3039L34.0792 13.3471C33.8742 13.4048 33.6673 13.4587 33.4643 13.5253C32.649 13.7805 31.8537 14.0962 31.0852 14.4698C30.3217 14.8453 29.582 15.2675 28.8702 15.734C28.1581 16.1957 27.4752 16.6906 26.8094 17.2044C26.6442 17.3341 26.4779 17.4607 26.3134 17.5933C26.1489 17.726 25.9823 17.8582 25.8206 17.9941C25.659 18.1299 25.4963 18.2661 25.3382 18.4059C25.1801 18.5456 25.0199 18.6836 24.865 18.8258C24.5189 19.1389 24.1793 19.4571 23.846 19.7806C22.9719 20.6235 22.1323 21.492 21.2906 22.3451C20.7341 22.9095 20.1765 23.4678 19.6083 24.0101C19.5342 23.9563 19.4598 23.9032 19.3847 23.8525C19.0747 23.6417 18.7535 23.4455 18.4212 23.2639C18.3652 23.2328 18.3086 23.2023 18.2514 23.1726C17.8574 22.9642 17.4503 22.7816 17.0326 22.6261C16.6019 22.4674 16.1569 22.3506 15.7038 22.2774C15.242 22.2021 14.7729 22.1818 14.3063 22.2171C13.8275 22.2525 13.3563 22.3578 12.9078 22.5295C12.4347 22.709 12.0035 22.9837 11.6406 23.3366C11.4493 23.5253 11.2858 23.7403 11.1549 23.9752C11.0192 24.2193 10.9249 24.4844 10.8761 24.7595C10.7884 25.2936 10.8564 25.8416 11.072 26.3379C11.1738 26.5778 11.3054 26.8039 11.4636 27.011C11.6216 27.2191 11.806 27.4056 12.0123 27.5658C12.402 27.874 12.8479 28.1033 13.3251 28.241C13.8035 28.3736 14.3034 28.4099 14.7959 28.348C15.2626 28.2887 15.719 28.1659 16.1525 27.9829C16.5666 27.81 16.9656 27.6026 17.3452 27.3629C17.6493 27.1732 17.9398 26.9707 18.2208 26.7568C18.2859 26.7076 18.35 26.6584 18.4141 26.6081C18.7872 26.3154 19.144 26.0081 19.4886 25.6929C19.7735 25.4355 20.0473 25.1717 20.3179 24.9086C20.3808 24.8461 20.4432 24.7841 20.5052 24.7228ZM17.7009 25.6833L17.6824 25.6972C17.0554 26.1739 16.3939 26.5974 15.7053 26.8709C15.3709 27.0079 15.0194 27.0989 14.6606 27.1411C14.4914 27.1598 14.3208 27.1623 14.1511 27.1486C13.986 27.1364 13.8227 27.1064 13.664 27.0591C13.3422 26.9609 13.0426 26.8007 12.7821 26.5875C12.5394 26.3926 12.3504 26.139 12.2331 25.8505C12.1167 25.5783 12.0808 25.2783 12.1298 24.9863C12.18 24.7214 12.3238 24.4707 12.5453 24.2568C12.7847 24.0331 13.0671 23.8605 13.3753 23.7495C13.7058 23.6291 14.0521 23.557 14.4032 23.5356C15.1171 23.4882 15.863 23.6283 16.5616 23.8942C16.9184 24.0325 17.266 24.1933 17.6023 24.3759C17.6044 24.3775 17.6067 24.3788 17.6091 24.3798C17.9392 24.5592 18.2596 24.7561 18.5686 24.9699C18.2848 25.218 17.9964 25.4565 17.7009 25.6833Z" fill="white"/>
<path d="M49.8992 24.2623C49.8596 25.1505 49.7397 26.0332 49.541 26.8998C49.3408 27.7608 49.0687 28.6035 48.7275 29.4189C48.3915 30.2148 48.013 30.992 47.5935 31.7472C47.3886 32.1201 47.1791 32.4873 46.9689 32.8502L46.6527 33.3917L46.4951 33.6607L46.3279 33.94C45.4244 35.4234 44.3285 36.8024 43.0295 37.9848C41.7304 39.1671 40.2262 40.1434 38.5771 40.7956C37.7412 41.1294 36.8676 41.3597 35.9759 41.4816C35.0693 41.607 34.1491 41.595 33.2462 41.446C32.3509 41.2889 31.4826 41.0045 30.6677 40.6017C30.2663 40.4056 29.877 40.186 29.5017 39.9438C29.1282 39.7031 28.7675 39.4431 28.4211 39.165C28.0749 38.8829 27.7455 38.5811 27.4343 38.2609C27.1266 37.9425 26.8357 37.6083 26.5628 37.2596C26.0311 36.5715 25.5529 35.8435 25.1326 35.0821C24.2935 33.5846 23.6365 32.0443 22.9155 30.5777C22.5562 29.8444 22.1809 29.1285 21.7648 28.4486C21.3576 27.7736 20.8916 27.1359 20.3722 26.5429C20.2491 26.4028 20.121 26.2686 19.9912 26.1359C20.3078 25.8427 20.6571 25.5157 21.0139 25.1752C21.1522 25.3144 21.2892 25.4546 21.4201 25.6001C22.004 26.2482 22.5289 26.9472 22.9887 27.6886C23.4483 28.4184 23.8531 29.1702 24.2337 29.922C24.9938 31.4252 25.6622 32.9342 26.465 34.3246C26.8558 35.0119 27.2981 35.6684 27.7883 36.2887C28.0305 36.59 28.2881 36.8785 28.5601 37.1533C28.831 37.4247 29.1172 37.6803 29.4174 37.9189C30.6318 38.8696 32.0467 39.5816 33.514 39.8107C34.9813 40.0399 36.5215 39.7819 37.9358 39.2016C39.3675 38.6145 40.6818 37.7428 41.824 36.6754C42.9662 35.608 43.944 34.3524 44.7497 32.9922L44.8987 32.736L45.0527 32.4663L45.3576 31.9287C45.5596 31.5708 45.757 31.2146 45.9466 30.8577C46.3248 30.1574 46.6654 29.4373 46.9668 28.7005C47.2582 27.9804 47.4884 27.237 47.6551 26.4782C47.8182 25.7239 47.9127 24.9564 47.9375 24.1851L49.8992 24.2623Z" fill="white"/>
<path d="M21.0735 1.93933C21.0244 1.61964 20.9088 1.31368 20.734 1.04109C20.4441 0.582186 19.9727 0.212573 19.4084 0.207592C18.8598 0.201901 18.403 0.530604 18.0903 0.95678C17.804 1.35611 17.6064 1.81162 17.511 2.29294C17.4949 2.37049 17.4813 2.44768 17.4702 2.52559C17.3562 3.33668 17.235 4.14634 17.1171 4.95636C16.9992 5.76638 16.8812 6.57711 16.7633 7.38748C16.6453 8.19786 16.5281 9.00787 16.4102 9.81825C16.2922 10.6286 16.1747 11.4386 16.0571 12.249C15.9395 13.0594 15.8215 13.8698 15.704 14.6798C15.5864 15.4898 15.4681 16.3005 15.3501 17.1109C15.2322 17.9213 15.1146 18.7313 14.997 19.5417C14.8794 20.3521 14.7615 21.1624 14.6439 21.9724L14.4734 23.1435C14.4122 23.5635 14.3511 23.9836 14.2901 24.4036C14.2865 24.4285 14.2826 24.4537 14.279 24.4786C14.1649 25.2636 14.0509 26.0489 13.937 26.8343C13.88 27.2273 13.823 27.6202 13.7658 28.0129C13.8917 28.0443 14.0202 28.0647 14.1496 28.0741C14.32 28.0877 14.4912 28.0852 14.6611 28.0666C15.0033 28.0271 15.3388 27.9434 15.6593 27.8176L16.3383 24.7447C16.4456 24.2566 16.5435 23.8127 16.6289 23.426C16.8265 22.5299 16.957 21.939 16.9863 21.8067C17.1633 21.0074 17.3399 20.2079 17.516 19.4079C17.692 18.608 17.8676 17.808 18.0428 17.0081C18.2191 16.2086 18.3955 15.4092 18.5721 14.6097C18.7486 13.8102 18.9249 13.0107 19.101 12.211C19.2771 11.4113 19.4534 10.6115 19.63 9.81185C19.8065 9.01214 19.9832 8.21232 20.16 7.41238C20.3361 6.61268 20.5124 5.81322 20.6889 5.01399C20.7604 4.69916 20.8251 4.38824 20.8976 4.07412C20.9763 3.74973 21.0366 3.42123 21.0785 3.09015C21.1277 2.70799 21.126 2.32105 21.0735 1.93933ZM20.323 2.86141C20.1682 3.45051 19.9784 4.03144 19.7697 4.60453C19.591 5.11179 19.3793 5.60696 19.136 6.0869C19.0756 6.20287 18.9931 6.33983 18.8637 6.38074C18.7951 6.40316 18.7227 6.41156 18.6508 6.40545C18.5789 6.39933 18.509 6.37883 18.4452 6.34516C18.3604 6.30144 18.2942 6.22903 18.2583 6.14097C18.2353 6.06759 18.2251 5.99082 18.2283 5.91401C18.2218 5.54689 18.214 5.18047 18.2097 4.81371C18.2047 4.28686 18.205 3.75858 18.2318 3.23244C18.2447 2.98165 18.2461 2.70986 18.3101 2.46583C18.6625 1.1254 20.7039 1.68071 20.323 2.86141ZM13.5889 29.2281C13.5889 29.2402 13.5857 29.253 13.5839 29.2637C13.4659 30.0741 13.3482 30.8844 13.2308 31.6948C13.1133 32.5052 12.9954 33.3154 12.877 34.1256C12.7578 34.9359 12.6401 35.7462 12.5238 36.5563C12.4076 37.3665 12.2898 38.1766 12.1704 38.9867C12.0527 39.7976 11.9349 40.6081 11.8169 41.4182C11.7812 41.6651 11.7454 41.9124 11.7097 42.1592C11.6915 42.2852 11.6382 42.6573 11.6282 42.7188C11.6254 42.7384 11.6175 42.8764 11.605 42.8967C11.92 42.5877 12.2135 42.2578 12.4835 41.9091C12.4835 41.9091 12.843 40.5862 12.8852 40.3941L15.3623 29.1673C15.1765 29.2133 14.9881 29.2476 14.798 29.2701C14.3953 29.32 13.9871 29.3059 13.5889 29.2281Z" fill="white"/>
<path d="M27.6597 17.1188C27.6597 17.1188 37.8271 20.0678 42.4858 14.0844C41.643 13.5603 34.4566 10.5386 27.6597 17.1188Z" fill="white"/>
<path d="M48.0347 17.0683C45.7464 11.6707 41.6384 7.2465 36.4256 4.56566C31.2128 1.88483 25.2253 1.11707 19.505 2.39601L19.1921 4.49647C21.086 4.00429 23.0349 3.75581 24.9916 3.75704C37.6982 3.75704 48.0351 14.0967 48.0351 26.8059C48.0351 39.5151 37.6979 49.8523 24.9916 49.8523C12.2853 49.8523 1.94814 39.5126 1.94814 26.8034C1.94814 17.2331 7.80956 9.00677 16.1301 5.52677L16.4636 3.2839C16.0588 3.43057 15.6567 3.58852 15.2573 3.75775C10.7049 5.68464 6.82567 8.91822 4.1101 13.0498C1.39452 17.1814 -0.0355374 22.0255 0.000670944 26.9698C0.0368793 31.9141 1.53773 36.7367 4.31353 40.8281C7.08932 44.9194 11.0154 48.0958 15.5957 49.9558C20.1759 51.8158 25.2046 52.2758 30.0461 51.2778C34.8877 50.2798 39.3248 47.8685 42.7965 44.3487C46.2683 40.829 48.6189 36.3587 49.5513 31.503C50.4836 26.6473 49.9559 21.6241 48.0347 17.0683Z" fill="white"/>
<path d="M87.1398 51.7256C87.0566 51.7256 86.9732 51.7243 86.8895 51.7221C84.3572 51.6526 82.0007 50.4587 80.4241 48.4465C78.8477 46.4339 78.2326 43.835 78.7364 41.3156L80.7456 31.2692C80.8425 30.7847 81.3077 30.4719 81.7848 30.5702C82.2619 30.6685 82.5701 31.1408 82.4733 31.6248L80.4641 41.6713C80.064 43.6717 80.5526 45.7349 81.8042 47.3325C83.0559 48.9306 84.9266 49.8785 86.9371 49.9336C90.3367 50.0288 93.5071 47.6667 94.1428 44.5607L96.4626 31.2906C96.5473 30.8044 97.0045 30.4776 97.4846 30.5663C97.9639 30.6523 98.2834 31.1167 98.1984 31.6034L95.8738 44.8992C95.0678 48.8393 91.3402 51.7256 87.1398 51.7256Z" fill="white"/>
<path d="M101.193 51.6953C101.142 51.6953 101.091 51.6909 101.039 51.6817C100.559 51.5947 100.239 51.1282 100.324 50.6389L105.198 22.5416C105.283 22.0527 105.738 21.7272 106.22 21.8125C106.7 21.8994 107.019 22.3659 106.935 22.8553L102.06 50.9525C101.985 51.3887 101.613 51.6953 101.193 51.6953Z" fill="white"/>
<path d="M113.644 51.7388C112.559 51.7392 111.439 51.4542 110.574 50.7496C109.122 49.5666 108.085 48.0751 108.041 48.0121L102.735 40.8803C102.447 40.4923 102.519 39.9428 102.898 39.6443L114.191 30.7504C114.575 30.448 115.129 30.5175 115.429 30.9046C115.728 31.2921 115.66 31.8513 115.276 32.1536L104.665 40.5101L109.469 46.969C109.497 47.0073 110.43 48.3454 111.681 49.3645C112.889 50.349 115.193 49.9506 115.813 49.3385C116.161 48.9953 116.72 49.0018 117.06 49.3533C117.4 49.7047 117.393 50.2677 117.045 50.6114C116.38 51.267 115.041 51.7388 113.644 51.7388Z" fill="white"/>
<path d="M58.8827 51.6958C58.8317 51.6958 58.78 51.6914 58.728 51.6822C58.2485 51.5952 57.9287 51.1287 58.0137 50.6393L62.8879 22.5413C62.9727 22.052 63.4302 21.7274 63.9095 21.8122C64.389 21.8991 64.7088 22.3656 64.6238 22.855L59.7495 50.953C59.674 51.3891 59.3021 51.6958 58.8827 51.6958Z" fill="white"/>
<path d="M71.3365 51.7388C70.2512 51.7388 69.1315 51.4542 68.2666 50.7496C66.8139 49.5666 65.7769 48.0751 65.7334 48.0121L60.4277 40.8803C60.1391 40.4923 60.2114 39.9428 60.5902 39.6443L71.8838 30.7504C72.2677 30.4476 72.8215 30.5175 73.121 30.9046C73.4205 31.2921 73.3521 31.8513 72.9684 32.1536L62.357 40.5101L67.1615 46.969C67.1888 47.0073 68.1224 48.3454 69.3736 49.3645C70.5812 50.3477 72.8851 49.9497 73.5058 49.3385C73.8544 48.9953 74.4127 49.0018 74.7523 49.3533C75.0925 49.7047 75.0858 50.2682 74.7376 50.6114C74.0727 51.267 72.7332 51.7388 71.3365 51.7388Z" fill="white"/>
<path d="M125.32 51.792C123.143 51.792 122.016 50.7193 121.783 50.47C119.907 48.6253 120.785 44.4455 120.891 43.9733L124.703 22.5272C124.788 22.0437 125.243 21.7213 125.725 21.8061C126.204 21.8917 126.524 22.3534 126.439 22.8374L122.619 44.3261C122.294 45.7797 122.126 48.3407 123.021 49.2036C123.044 49.2253 123.065 49.2479 123.086 49.2717C123.126 49.3165 124.377 50.6468 127.421 49.635C127.514 49.6037 127.676 49.522 127.915 49.3082C128.28 48.982 128.837 49.0167 129.159 49.3852C129.482 49.7531 129.448 50.3153 129.083 50.6411C128.706 50.9783 128.342 51.202 127.972 51.3249C126.958 51.6625 126.075 51.792 125.32 51.792Z" fill="white"/>
<path d="M131.22 32.3413H120.608C120.121 32.3413 119.727 31.943 119.727 31.4517C119.727 30.9604 120.121 30.5621 120.608 30.5621H131.22C131.707 30.5621 132.102 30.9604 132.102 31.4517C132.102 31.943 131.707 32.3413 131.22 32.3413Z" fill="white"/>
<path d="M152.894 51.7451C152.842 51.7451 152.791 51.7408 152.739 51.7312C152.259 51.6456 151.94 51.1834 152.025 50.6998L155.441 31.2963C155.526 30.8123 155.983 30.4878 156.463 30.576C156.942 30.6615 157.261 31.1238 157.176 31.6073L153.76 51.0109C153.685 51.4423 153.313 51.7451 152.894 51.7451Z" fill="white"/>
<path d="M159.954 51.7925C159.904 51.7925 159.853 51.7881 159.802 51.7794C159.323 51.6956 159.001 51.2351 159.084 50.7507L163.939 22.5319C164.023 22.0479 164.476 21.7256 164.958 21.8073C165.438 21.8911 165.759 22.3516 165.676 22.836L160.822 51.0548C160.747 51.4875 160.375 51.7925 159.954 51.7925Z" fill="white"/>
<path d="M146.925 46.0688C146.856 46.0688 146.786 46.0606 146.716 46.0436C146.258 45.9307 145.972 45.4767 146.058 45.0149C146.06 45.0023 146.062 44.988 146.065 44.9741H146.065L147.317 37.6737C147.541 36.3555 147.181 35.0127 146.328 33.9909C145.475 32.97 144.228 32.3847 142.905 32.3847H137.087C136.6 32.3847 136.206 31.9863 136.206 31.495C136.206 31.0037 136.6 30.6053 137.087 30.6053H142.905C144.749 30.6053 146.488 31.4212 147.676 32.844C148.864 34.2685 149.367 36.1388 149.054 37.976L147.802 45.2773C147.801 45.2817 147.801 45.2855 147.8 45.2899C147.795 45.3238 147.789 45.3568 147.781 45.3898C147.683 45.7965 147.322 46.0688 146.925 46.0688Z" fill="white"/>
<path d="M140.344 38.2913C137.161 38.2913 134.573 40.9049 134.573 44.1172C134.573 47.3295 137.161 49.9426 140.344 49.9426C143.526 49.9426 146.116 47.3295 146.116 44.1172C146.116 40.9049 143.526 38.2913 140.344 38.2913ZM140.344 51.7222C136.19 51.7222 132.81 48.3105 132.81 44.1172C132.81 39.9235 136.19 36.5118 140.344 36.5118C144.499 36.5118 147.879 39.9235 147.879 44.1172C147.879 48.3105 144.499 51.7222 140.344 51.7222Z" fill="white"/>
<path d="M157.741 27.8452C157.741 28.3366 157.346 28.7349 156.859 28.7349C156.373 28.7349 155.978 28.3366 155.978 27.8452C155.978 27.3539 156.373 26.9556 156.859 26.9556C157.346 26.9556 157.741 27.3539 157.741 27.8452Z" fill="white"/>
<path d="M139.24 44.1172C139.24 44.6085 138.845 45.0068 138.358 45.0068C137.872 45.0068 137.477 44.6085 137.477 44.1172C137.477 43.6259 137.872 43.2276 138.358 43.2276C138.845 43.2276 139.24 43.6259 139.24 44.1172Z" fill="white"/>
<path d="M143.209 44.1172C143.209 44.6085 142.814 45.0068 142.328 45.0068C141.841 45.0068 141.446 44.6085 141.446 44.1172C141.446 43.6259 141.841 43.2276 142.328 43.2276C142.814 43.2276 143.209 43.6259 143.209 44.1172Z" fill="white"/>
<path d="M140.342 43.0049C139.855 43.0049 139.46 42.6066 139.46 42.1152C139.46 41.6239 139.855 41.2256 140.342 41.2256C140.829 41.2256 141.223 41.6239 141.223 42.1152C141.223 42.6066 140.829 43.0049 140.342 43.0049Z" fill="white"/>
<path d="M140.342 47.0088C139.855 47.0088 139.46 46.6105 139.46 46.1192C139.46 45.6278 139.855 45.2295 140.342 45.2295C140.829 45.2295 141.223 45.6278 141.223 46.1192C141.223 46.6105 140.829 47.0088 140.342 47.0088Z" fill="white"/>
</svg>
